<?xml version="1.0" standalone="no"?>
<!DOCTYPE svg PUBLIC "-//W3C//DTD SVG 20010904//EN"
 "http://www.w3.org/TR/2001/REC-SVG-20010904/DTD/svg10.dtd">
<svg version="1.0" xmlns="http://www.w3.org/2000/svg"
 width="48.000000pt" height="48.000000pt" viewBox="0 0 48.000000 48.000000"
 preserveAspectRatio="xMidYMid meet">

<g transform="translate(0.000000,48.000000) scale(0.100000,-0.100000)"
fill="#000000" stroke="none">
<path d="M5 467 c-3 -7 -4 -114 -3 -237 l3 -225 235 0 235 0 0 235 0 235 -233
3 c-183 2 -234 0 -237 -11z m435 -227 l0 -220 -203 2 -202 3 -3 218 -2 217
205 0 205 0 0 -220z"/>
<path d="M185 426 c-30 -14 -29 -14 30 -15 69 -1 109 -21 149 -74 14 -18 26
-45 26 -58 -1 -25 -28 -93 -29 -72 -1 8 -11 9 -38 1 -50 -13 -58 -19 -42 -29
8 -4 19 -3 27 4 12 9 14 8 11 -8 -3 -15 -12 -20 -34 -20 -33 0 -51 -15 -32
-27 8 -5 6 -8 -7 -8 -13 0 -16 4 -11 17 12 29 7 57 -12 71 -15 11 -19 11 -21
-3 -3 -15 -7 -14 -27 5 -34 32 -40 8 -9 -37 14 -21 27 -36 29 -33 1 3 13 -4
25 -15 17 -15 36 -20 77 -19 51 0 58 3 89 37 34 37 38 48 36 125 -2 62 -37
118 -92 147 -41 21 -111 27 -145 11z"/>
<path d="M148 377 c-69 -17 -111 -101 -94 -190 7 -40 57 -102 98 -123 45 -23
125 -21 176 5 23 12 42 24 42 26 0 3 -13 -1 -30 -10 -16 -8 -50 -15 -76 -15
-115 0 -200 95 -165 184 8 21 51 30 51 12 0 -6 4 -5 9 3 5 8 16 11 24 8 9 -3
17 1 20 13 6 23 -21 36 -29 15 -4 -8 -10 -15 -15 -15 -6 0 -5 9 1 21 14 25 49
22 64 -6 6 -11 19 -26 29 -33 9 -7 15 -18 12 -23 -4 -5 -1 -9 6 -9 7 0 9 10 7
25 -6 27 9 35 18 10 7 -16 44 -21 44 -6 0 6 -8 16 -19 23 -10 7 -18 15 -18 18
0 3 -7 19 -16 35 -9 17 -16 24 -17 16 0 -10 -3 -11 -14 -2 -24 20 -70 28 -108
18z"/>
</g>
</svg>
